<?xml version="1.0" standalone="no"?>
<!DOCTYPE svg PUBLIC "-//W3C//DTD SVG 20010904//EN"
 "http://www.w3.org/TR/2001/REC-SVG-20010904/DTD/svg10.dtd">
<svg version="1.0" xmlns="http://www.w3.org/2000/svg"
 width="2592.000000pt" height="1453.000000pt" viewBox="0 0 2592.000000 1453.000000"
 preserveAspectRatio="xMidYMid meet">

<g transform="translate(0.000000,1453.000000) scale(0.100000,-0.100000)"
fill="#000000" stroke="none">
<path d="M0 7265 l0 -7265 12960 0 12960 0 0 7265 0 7265 -12960 0 -12960 0 0
-7265z m9510 2239 c122 -41 226 -139 272 -254 30 -77 31 -232 1 -307 -47 -120
-151 -216 -272 -253 -243 -75 -491 12 -590 208 -129 255 9 546 292 618 70 18
226 11 297 -12z m888 10 c86 -17 162 -47 162 -63 0 -9 -65 -174 -76 -192 -2
-4 -43 7 -90 23 -73 25 -99 29 -157 26 -53 -3 -72 -8 -83 -22 -29 -40 6 -62
142 -87 204 -38 303 -119 304 -250 1 -198 -197 -314 -479 -281 -103 12 -212
41 -248 67 l-22 15 41 93 c22 50 44 96 49 101 4 5 27 0 54 -13 101 -48 259
-66 303 -35 52 36 16 60 -150 99 -158 36 -220 72 -259 147 -25 50 -26 158 0
213 19 43 81 104 130 130 86 44 246 56 379 29z m1234 5 c78 -16 152 -54 209
-108 l52 -47 -90 -81 -90 -82 -24 26 c-30 32 -115 73 -153 73 -109 0 -196 -91
-196 -205 0 -123 107 -221 219 -200 42 8 108 44 135 74 l19 21 86 -77 c47 -43
88 -79 90 -80 13 -9 -84 -89 -144 -119 -243 -119 -542 -30 -648 193 -30 65
-32 74 -32 188 0 114 2 123 31 185 40 83 87 136 160 180 103 62 251 85 376 59z
m1290 0 c236 -49 387 -262 349 -492 -46 -278 -332 -430 -633 -337 -346 107
-403 583 -92 770 103 62 251 85 376 59z m4026 -4 c194 -46 326 -195 339 -382
18 -254 -149 -442 -415 -469 -203 -20 -401 85 -480 253 -25 53 -27 69 -27 178
0 113 2 124 31 186 90 190 322 288 552 234z m919 1 c45 -8 104 -25 132 -38
l50 -23 -43 -100 c-23 -55 -47 -99 -52 -98 -5 1 -36 12 -69 24 -123 44 -255
35 -255 -17 0 -29 16 -37 149 -65 136 -30 191 -53 239 -100 51 -51 65 -93 60
-174 -7 -114 -86 -203 -217 -242 -74 -23 -269 -23 -363 0 -80 20 -158 55 -158
71 0 19 78 190 89 194 5 2 28 -6 50 -17 118 -61 321 -68 321 -12 0 30 -19 39
-156 71 -216 51 -285 108 -292 240 -5 85 8 126 59 183 87 100 257 138 456 103z
m-9256 -34 c30 -12 75 -38 98 -58 143 -123 130 -370 -25 -472 -67 -45 -131
-62 -256 -69 l-108 -6 0 -98 0 -99 -145 0 -145 0 0 416 0 415 263 -3 c243 -3
266 -5 318 -26z m2349 -387 l0 -415 -140 0 -140 0 -1 213 c-1 116 -2 300 -3
407 -1 107 0 198 2 203 2 4 66 7 143 7 l139 0 0 -415z m1290 0 l0 -415 -145 0
-145 0 0 415 0 415 145 0 145 0 0 -415z m1505 236 l150 -179 3 179 2 179 140
0 140 0 0 -415 0 -415 -117 0 -118 0 -150 182 -150 181 -3 -182 -2 -181 -140
0 -140 0 0 415 0 415 118 0 118 0 149 -179z m1270 -183 c87 -200 169 -387 182
-415 l23 -53 -149 0 -148 0 -25 68 -25 67 -158 0 -158 0 -25 -67 -25 -68 -143
0 c-79 0 -144 2 -144 4 0 4 270 625 333 769 l26 57 139 0 139 0 158 -362z
m608 144 c71 -117 133 -210 137 -205 5 4 63 101 130 216 l122 207 119 0 119 0
0 -415 0 -415 -130 0 -130 0 -2 180 -3 181 -84 -141 -83 -140 -67 0 -66 0 -85
138 -85 137 -3 -177 -2 -178 -125 0 -125 0 -1 88 c0 48 -3 228 -5 401 -3 173
-3 320 0 328 4 11 31 13 122 11 l116 -3 131 -213z m-2058 -848 c33 -8 80 -27
104 -41 47 -27 121 -90 121 -103 0 -4 -38 -42 -84 -84 l-85 -77 -48 37 c-59
45 -82 54 -138 54 -80 0 -133 -33 -166 -105 -35 -76 -17 -199 37 -247 78 -69
203 -59 278 20 l29 31 88 -77 c48 -42 88 -81 88 -86 2 -16 -79 -86 -129 -111
-141 -71 -324 -73 -468 -4 -68 34 -148 113 -182 183 -121 246 -4 523 258 607
72 23 216 25 297 3z m-4817 -111 l3 -113 -121 0 -120 0 0 -300 0 -300 -145 0
-145 0 0 300 0 299 -117 3 -118 3 -3 99 c-1 55 0 106 2 113 5 11 75 13 383 11
l378 -3 3 -112z m332 -158 c4 -238 7 -273 23 -296 47 -70 156 -61 200 16 8 13
14 111 17 285 l5 265 135 0 135 0 0 -280 c0 -271 -1 -282 -24 -340 -32 -82
-115 -164 -196 -196 -51 -20 -78 -23 -180 -23 -141 0 -204 19 -279 85 -107 94
-126 169 -126 505 0 132 3 244 7 248 4 3 68 5 142 4 l136 -3 5 -270z m1351 56
l133 -219 119 201 c66 111 127 210 135 220 14 15 30 17 126 15 l111 -3 3 -412
2 -413 -130 0 -130 0 -1 118 c-1 64 -4 142 -7 172 l-7 55 -80 -138 -80 -137
-65 2 -65 3 -80 130 -80 129 -3 -167 -2 -167 -130 0 -130 0 0 415 0 415 113 0
114 0 134 -219z m1298 205 c7 -9 191 -426 342 -773 l18 -43 -147 0 -147 0 -26
68 -26 67 -154 3 -154 2 -26 -67 -26 -68 -146 -3 -146 -3 23 53 c13 29 92 211
176 403 84 193 157 356 163 363 13 17 262 15 276 -2z m955 -16 c57 -18 80 -32
127 -79 46 -46 61 -70 75 -116 39 -138 -10 -269 -134 -351 -2 -1 33 -57 77
-123 45 -66 81 -123 81 -126 0 -3 -67 -5 -148 -5 l-149 0 -67 100 c-63 95 -68
100 -101 100 l-35 0 0 -100 0 -100 -145 0 -145 0 0 408 c0 225 4 412 8 417 4
4 115 5 247 2 213 -4 248 -7 309 -27z m1714 18 c8 -10 140 -309 343 -775 l18
-43 -147 0 -147 0 -26 68 -26 67 -154 3 -154 2 -25 -67 -25 -68 -147 -3 -147
-3 28 63 c15 35 94 216 176 403 81 187 152 346 158 353 7 8 47 12 137 12 90 0
131 -4 138 -12z m1282 -253 l0 -65 -180 0 -180 0 0 -70 0 -69 158 -3 157 -3 3
-62 3 -63 -161 0 -160 0 0 -75 0 -75 185 0 185 0 0 -70 0 -70 -270 0 -270 0 0
345 0 345 265 0 265 0 0 -65z m431 -136 l164 -202 3 202 2 201 80 0 80 0 0
-345 0 -345 -67 0 -68 1 -165 202 -165 202 -3 -203 -2 -202 -80 0 -80 0 0 345
0 345 68 0 68 0 165 -201z m1288 136 l-1 -65 -179 0 -179 0 0 -70 0 -70 155 0
155 0 0 -65 0 -65 -155 0 -155 0 0 -75 0 -75 185 0 185 0 0 -70 0 -70 -267 2
-268 3 -3 343 -2 342 265 0 265 0 -1 -65z m291 -210 l0 -275 173 -2 172 -3 0
-65 0 -65 -252 -3 -253 -2 0 345 0 345 80 0 80 0 0 -275z m-5029 -641 c79 -22
152 -77 198 -145 120 -180 51 -425 -147 -517 -51 -24 -68 -27 -172 -27 -104 0
-121 3 -172 27 -292 137 -266 561 41 659 70 22 180 24 252 3z m2290 -21 c36
-18 76 -44 89 -59 l25 -26 -54 -48 -55 -48 -35 29 c-85 68 -221 61 -297 -15
-106 -105 -74 -286 61 -347 48 -22 133 -24 180 -5 l35 15 0 100 0 101 75 0 75
0 0 -144 0 -144 -32 -20 c-74 -45 -156 -64 -263 -60 -121 5 -189 31 -260 103
-186 185 -108 504 144 586 42 14 79 18 152 16 84 -2 103 -6 160 -34z m-5782
-186 l124 -208 125 211 125 210 68 0 69 0 0 -345 0 -345 -80 0 -80 0 -2 191
-3 191 -93 -156 -93 -156 -38 0 -38 0 -94 155 -94 155 -3 -190 -2 -190 -80 0
-80 0 0 345 0 346 72 -3 72 -3 125 -208z m831 -14 c1 -194 4 -233 18 -263 42
-86 196 -94 249 -14 16 25 19 58 23 264 l5 235 83 3 84 3 -4 -243 c-3 -231 -4
-246 -27 -296 -29 -64 -95 -125 -158 -146 -28 -10 -80 -16 -129 -16 -113 0
-179 25 -237 90 -68 75 -77 121 -77 388 l0 222 85 0 85 0 0 -227z m910 25
l165 -203 3 203 2 202 80 0 80 0 0 -345 0 -345 -68 0 -68 0 -164 201 -165 202
-3 -202 -2 -201 -80 0 -80 0 0 345 0 345 68 0 67 0 165 -202z m925 187 c160
-42 255 -164 255 -330 0 -147 -77 -264 -205 -316 -55 -22 -77 -24 -272 -27
l-213 -3 0 345 0 346 188 0 c137 0 204 -4 247 -15z m1910 0 c160 -42 255 -164
255 -330 0 -147 -77 -264 -205 -316 -55 -22 -77 -24 -272 -27 l-213 -3 0 345
0 346 188 0 c137 0 204 -4 247 -15z m535 -330 l0 -345 -85 0 -85 0 0 338 c0
186 3 342 7 345 3 4 42 7 85 7 l78 0 0 -345z m1077 -2 l3 -343 -85 0 -85 0 0
345 0 346 83 -3 82 -3 2 -342z m683 277 l0 -70 -110 0 -110 0 0 -275 0 -275
-85 0 -85 0 0 275 0 275 -110 0 -110 0 0 70 0 70 305 0 305 0 0 -70z m571
-269 c82 -184 149 -338 149 -342 0 -5 -38 -9 -84 -9 l-84 0 -28 70 -29 70
-159 -2 -159 -3 -28 -65 -27 -65 -86 -3 c-81 -3 -85 -2 -78 16 4 11 72 166
152 346 l145 326 83 -2 83 -3 150 -334z m387 64 c2 -148 4 -270 5 -272 1 -1
77 -3 167 -5 l165 -3 3 -67 3 -68 -256 0 -255 0 0 345 0 346 83 -3 82 -3 3
-270z"/>
<path d="M9283 9289 c-99 -30 -153 -177 -104 -285 65 -144 252 -150 317 -10
79 169 -48 346 -213 295z"/>
<path d="M12732 9279 c-64 -32 -96 -85 -100 -170 -5 -84 21 -148 77 -184 59
-39 111 -42 175 -11 46 22 59 35 80 78 72 145 -15 308 -164 308 -14 0 -44 -10
-68 -21z"/>
<path d="M16764 9289 c-18 -5 -48 -27 -67 -48 -99 -109 -63 -287 68 -337 81
-31 180 10 216 89 36 81 18 210 -37 259 -48 42 -116 56 -180 37z"/>
<path d="M8320 9194 l0 -97 75 5 c93 6 125 29 125 89 0 21 -3 45 -6 54 -11 28
-60 45 -129 45 l-65 0 0 -96z"/>
<path d="M14713 9195 c-6 -17 -22 -60 -36 -97 l-26 -68 74 0 75 0 -24 63 c-13
34 -30 78 -38 97 l-14 35 -11 -30z"/>
<path d="M11562 8064 c-18 -48 -31 -88 -29 -91 3 -2 34 -3 70 -1 l65 3 -30 80
c-17 44 -33 83 -37 87 -4 4 -21 -31 -39 -78z"/>
<path d="M12420 8130 l0 -90 65 0 c69 0 118 17 129 45 14 37 6 86 -19 110 -21
22 -33 25 -100 25 l-75 0 0 -90z"/>
<path d="M14235 8072 c-16 -42 -30 -83 -33 -89 -3 -10 15 -13 68 -13 54 0 71
3 67 13 -3 6 -17 44 -32 82 -16 39 -31 73 -34 77 -4 4 -20 -27 -36 -70z"/>
<path d="M12475 7195 c-165 -58 -180 -311 -23 -389 70 -35 128 -34 199 2 44
22 58 36 81 81 94 180 -68 373 -257 306z"/>
<path d="M11570 6994 l0 -206 118 4 c110 3 122 5 160 31 58 38 82 89 82 173 0
92 -31 146 -103 180 -44 20 -67 24 -154 24 l-103 0 0 -206z"/>
<path d="M13480 6994 l0 -206 118 4 c110 3 122 5 160 31 58 38 82 89 82 173 0
92 -31 146 -103 180 -44 20 -67 24 -154 24 l-103 0 0 -206z"/>
<path d="M16336 7049 c-26 -66 -46 -122 -43 -125 2 -3 47 -3 100 -2 l96 3 -50
119 c-27 66 -50 121 -52 122 -1 1 -24 -52 -51 -117z"/>
</g>
</svg>
